<mxfile host="app.diagrams.net" modified="2023-08-10T06:12:37.709Z" agent="Mozilla/5.0 (Windows NT 10.0; Win64; x64) AppleWebKit/537.36 (KHTML, like Gecko) Chrome/115.0.0.0 Safari/537.36" etag="mSYaTrVbpE-1NE1GtK1H" version="21.6.7" type="github">
  <diagram name="페이지-1" id="oO2906egInjH9QfgpvEO">
    <mxGraphModel dx="1211" dy="635" grid="1" gridSize="10" guides="1" tooltips="1" connect="1" arrows="1" fold="1" page="1" pageScale="1" pageWidth="827" pageHeight="1169" math="0" shadow="0">
      <root>
        <mxCell id="0" />
        <mxCell id="1" parent="0" />
        <mxCell id="OvVbY2T20HvrTeTymrsV-2" value="PRODUCTION_PLAN&lt;br&gt;생산의뢰" style="swimlane;fontStyle=0;childLayout=stackLayout;horizontal=1;startSize=30;horizontalStack=0;resizeParent=1;resizeParentMax=0;resizeLast=0;collapsible=1;marginBottom=0;whiteSpace=wrap;html=1;" vertex="1" parent="1">
          <mxGeometry x="30" y="20" width="140" height="120" as="geometry" />
        </mxCell>
        <mxCell id="OvVbY2T20HvrTeTymrsV-3" value="PLAN_NO [의뢰번호]" style="text;strokeColor=none;fillColor=none;align=left;verticalAlign=middle;spacingLeft=4;spacingRight=4;overflow=hidden;points=[[0,0.5],[1,0.5]];portConstraint=eastwest;rotatable=0;whiteSpace=wrap;html=1;" vertex="1" parent="OvVbY2T20HvrTeTymrsV-2">
          <mxGeometry y="30" width="140" height="30" as="geometry" />
        </mxCell>
        <mxCell id="OvVbY2T20HvrTeTymrsV-4" value="PLAN_DATE [의뢰일자]" style="text;strokeColor=none;fillColor=none;align=left;verticalAlign=middle;spacingLeft=4;spacingRight=4;overflow=hidden;points=[[0,0.5],[1,0.5]];portConstraint=eastwest;rotatable=0;whiteSpace=wrap;html=1;" vertex="1" parent="OvVbY2T20HvrTeTymrsV-2">
          <mxGeometry y="60" width="140" height="30" as="geometry" />
        </mxCell>
        <mxCell id="OvVbY2T20HvrTeTymrsV-5" value="CVCOD [거래처코드]" style="text;strokeColor=none;fillColor=none;align=left;verticalAlign=middle;spacingLeft=4;spacingRight=4;overflow=hidden;points=[[0,0.5],[1,0.5]];portConstraint=eastwest;rotatable=0;whiteSpace=wrap;html=1;" vertex="1" parent="OvVbY2T20HvrTeTymrsV-2">
          <mxGeometry y="90" width="140" height="30" as="geometry" />
        </mxCell> 
      </root>
    </mxGraphModel>
  </diagram>
</mxfile>
